<svg width="40" height="40" viewBox="0 0 40 40" fill="none" xmlns="http://www.w3.org/2000/svg">
<g clip-path="url(#clip0_368_1774)">
<path d="M0 20C0 25.3043 2.10714 30.3914 5.85786 34.1421C9.60859 37.8929 14.6957 40 20 40C25.3043 40 30.3914 37.8929 34.1421 34.1421C37.8929 30.3914 40 25.3043 40 20C40 14.6957 37.8929 9.60859 34.1421 5.85786C30.3914 2.10714 25.3043 0 20 0C14.6957 0 9.60859 2.10714 5.85786 5.85786C2.10714 9.60859 0 14.6957 0 20Z" fill="#738BD8"/>
<path d="M7.45764 9.15234H32.5424V27.7964H7.45764V9.15234Z" fill="white"/>
<path d="M27.2717 36.417L6.14403 33.7051C3.86161 33.4122 3.97997 26.2377 4.18075 23.9453L5.19771 12.3351C5.39849 10.0427 8.10224 7.63902 10.3813 7.32097L28.6017 4.77859C30.8808 4.46062 35.5251 13.0852 35.4802 15.3859L35.1412 32.773M20 11.7334C15.5333 11.7334 12.4 13.6501 12.4 13.6501C14.1167 12.1168 17.1167 11.2334 17.1167 11.2334L16.8333 10.9501C14.0167 11.0001 11.4667 12.9501 11.4667 12.9501C8.59997 18.9334 8.78329 24.1001 8.78329 24.1001C11.1167 27.1168 14.5833 26.9001 14.5833 26.9001L15.7667 25.4001C13.6833 24.9501 12.3667 23.1001 12.3667 23.1001C12.3667 23.1001 15.5 25.2334 20 25.2334C24.5 25.2334 27.6333 23.1001 27.6333 23.1001C27.6333 23.1001 26.3167 24.9501 24.2333 25.4001L25.4167 26.9001C25.4167 26.9001 28.8833 27.1168 31.2167 24.1001C31.2167 24.1001 31.4 18.9334 28.5333 12.9501C28.5333 12.9501 25.9833 11.0001 23.1667 10.9501L22.8833 11.2334C22.8833 11.2334 25.8833 12.1168 27.6 13.6501C27.6 13.6501 24.4667 11.7334 20 11.7334ZM16.55 18.0501C17.6333 18.0501 18.5167 19.0001 18.5 20.1668C18.5 21.3168 17.6333 22.2834 16.55 22.2834C15.4833 22.2834 14.6167 21.3168 14.6167 20.1668C14.6167 19.0001 15.4667 18.0501 16.55 18.0501ZM23.5 18.0501C24.5833 18.0501 25.45 19.0001 25.45 20.1668C25.45 21.3168 24.5833 22.2834 23.5 22.2834C22.4333 22.2834 21.5667 21.3168 21.5667 20.1668C21.5667 19.0001 22.4166 18.0501 23.5 18.0501Z" fill="#738BD8"/>
</g>
<defs>
<clipPath id="clip0_368_1774">
<rect width="40" height="40" fill="white"/>
</clipPath>
</defs>
</svg>
