<svg width="40" height="40" viewBox="0 0 40 40" fill="none" xmlns="http://www.w3.org/2000/svg">
<g clip-path="url(#clip0_368_1782)">
<path d="M20 0C16.0444 0 12.1776 1.17298 8.8886 3.37061C5.59962 5.56824 3.03617 8.69181 1.52242 12.3463C0.00866562 16.0009 -0.387401 20.0222 0.384303 23.9018C1.15601 27.7814 3.06082 31.3451 5.85787 34.1421C8.65492 36.9392 12.2186 38.844 16.0982 39.6157C19.9778 40.3874 23.9992 39.9913 27.6537 38.4776C31.3082 36.9638 34.4318 34.4004 36.6294 31.1114C38.827 27.8224 40 23.9556 40 20C40 14.6957 37.8929 9.60859 34.1421 5.85786C30.3914 2.10714 25.3043 0 20 0ZM29.1667 24.0083C29.1645 24.8188 28.8416 25.5954 28.2685 26.1685C27.6954 26.7415 26.9188 27.0645 26.1083 27.0667H13.8917C13.0812 27.0645 12.3046 26.7415 11.7315 26.1685C11.1585 25.5954 10.8355 24.8188 10.8333 24.0083V15.9917C10.8355 15.1812 11.1585 14.4046 11.7315 13.8315C12.3046 13.2585 13.0812 12.9355 13.8917 12.9333H26.1083C26.9188 12.9355 27.6954 13.2585 28.2685 13.8315C28.8416 14.4046 29.1645 15.1812 29.1667 15.9917V24.0083Z" fill="#13227A"/>
<path d="M27.0167 14.7666L21.5083 19.5749C21.0899 19.9384 20.5543 20.1386 20 20.1386C19.4457 20.1386 18.9101 19.9384 18.4917 19.5749L12.9833 14.7666C12.7915 14.9085 12.6351 15.093 12.5267 15.3056C12.4182 15.5181 12.3606 15.753 12.3583 15.9916V16.2583L16.7917 20.1166L12.4333 24.4166C12.507 24.6752 12.6475 24.91 12.8405 25.0972C13.0336 25.2844 13.2725 25.4176 13.5333 25.4833L17.8667 21.2083C17.9073 21.1666 17.941 21.1188 17.9667 21.0666C18.5774 21.4533 19.2855 21.6586 20.0083 21.6586C20.7312 21.6586 21.4392 21.4533 22.05 21.0666C22.0756 21.1188 22.1094 21.1666 22.15 21.2083L26.4833 25.4833C26.7441 25.4176 26.9831 25.2844 27.1761 25.0972C27.3692 24.91 27.5096 24.6752 27.5833 24.4166L23.225 20.1166L27.6583 16.2583V15.9916C27.6542 15.7516 27.594 15.5158 27.4826 15.3031C27.3712 15.0904 27.2116 14.9067 27.0167 14.7666Z" fill="#13227A"/>
</g>
<defs>
<clipPath id="clip0_368_1782">
<rect width="40" height="40" fill="white"/>
</clipPath>
</defs>
</svg>
