<svg width="40" height="40" viewBox="0 0 40 40" fill="none" xmlns="http://www.w3.org/2000/svg">
<g clip-path="url(#clip0_github)">
<path d="M20 0C8.9543 0 0 8.9543 0 20C0 28.8375 5.725 36.425 13.75 39.1625C14.75 39.375 15.25 38.75 15.25 38.1875C15.25 37.6625 15.225 35.9625 15.225 34.25C10 35.25 8.7 32.8125 8.3 31.375C8.05 30.75 7.075 28.75 6.225 28.125C5.5 27.625 4.5 26.375 6.2 26.3375C7.825 26.3 9.025 27.75 9.5 28.5C11.1 31.5 14.125 30.5 15.325 29.9375C15.575 28.8125 16.1 28.0625 16.675 27.625C12.15 27.125 7.5 25.5 7.5 18.1875C7.5 16.0625 8.225 14.3125 9.55 12.9375C9.35 12.4375 8.65 10.5 9.775 7.875C9.775 7.875 11.375 7.375 15.25 9.8125C16.875 9.375 18.625 9.15625 20.375 9.15625C22.125 9.15625 23.875 9.375 25.5 9.8125C29.375 7.3375 30.975 7.875 30.975 7.875C32.1 10.5 31.4 12.4375 31.2 12.9375C32.525 14.3125 33.25 16.025 33.25 18.1875C33.25 25.525 28.575 27.125 24.05 27.625C24.75 28.1875 25.35 29.1875 25.35 30.6875C25.35 32.75 25.325 34.4375 25.325 38.1875C25.325 38.7875 25.825 39.4375 26.825 39.1875C34.825 36.425 40.5 28.8375 40.5 20C40.5 8.9543 31.5457 0 20.5 0H20Z" fill="#24292E"/>
</g>
<defs>
<clipPath id="clip0_github">
<rect width="40" height="40" fill="white"/>
</clipPath>
</defs>
</svg>

